<?xml version="1.0" encoding="UTF-8" standalone="no"?>
<svg
   xmlns:dc="http://purl.org/dc/elements/1.1/"
   xmlns:cc="http://creativecommons.org/ns#"
   xmlns:rdf="http://www.w3.org/1999/02/22-rdf-syntax-ns#"
   xmlns:svg="http://www.w3.org/2000/svg"
   xmlns="http://www.w3.org/2000/svg"
   xmlns:xlink="http://www.w3.org/1999/xlink"
   xmlns:sodipodi="http://sodipodi.sourceforge.net/DTD/sodipodi-0.dtd"
   xmlns:inkscape="http://www.inkscape.org/namespaces/inkscape"
   width="256"
   height="256"
   viewBox="0 0 67.733333 67.733333"
   version="1.1"
   id="svg8"
   inkscape:version="1.0.1 (3bc2e813f5, 2020-09-07)"
   sodipodi:docname="DrivingHands.svg"
   inkscape:export-filename="C:\Users\Daniel\Documents\GitHub\Scaffold\Drawings\InProgress\DrivingHands01.png"
   inkscape:export-xdpi="96"
   inkscape:export-ydpi="96">
  <defs
     id="defs2">
    <linearGradient
       inkscape:collect="always"
       id="linearGradient956">
      <stop
         style="stop-color:#ffd4aa;stop-opacity:1;"
         offset="0"
         id="stop952" />
      <stop
         style="stop-color:#ffd4aa;stop-opacity:1;"
         offset="0.16481559"
         id="stop960" />
      <stop
         style="stop-color:#ffd4aa;stop-opacity:1;"
         offset="0.83217126"
         id="stop962" />
      <stop
         style="stop-color:#ffc68f;stop-opacity:1"
         offset="1"
         id="stop954" />
    </linearGradient>
    <rect
       x="16.303441"
       y="66.376689"
       width="18.575232"
       height="16.704345"
       id="rect898" />
    <linearGradient
       inkscape:collect="always"
       id="linearGradient867">
      <stop
         style="stop-color:#000000;stop-opacity:1"
         offset="0"
         id="stop863" />
      <stop
         style="stop-color:#000000;stop-opacity:1"
         offset="1"
         id="stop865" />
    </linearGradient>
    <linearGradient
       inkscape:collect="always"
       id="linearGradient855">
      <stop
         style="stop-color:#f2f2f2;stop-opacity:1"
         offset="0"
         id="stop851" />
      <stop
         style="stop-color:#47a6ff;stop-opacity:1"
         offset="1"
         id="stop853" />
    </linearGradient>
    <linearGradient
       inkscape:collect="always"
       id="linearGradient837">
      <stop
         style="stop-color:#b1b1b1;stop-opacity:1"
         offset="0"
         id="stop833" />
      <stop
         style="stop-color:#696969;stop-opacity:1"
         offset="0.2107982"
         id="stop841" />
      <stop
         style="stop-color:#343434;stop-opacity:1"
         offset="0.34958875"
         id="stop843" />
      <stop
         style="stop-color:#000000;stop-opacity:1"
         offset="0.87509656"
         id="stop845" />
      <stop
         style="stop-color:#515151;stop-opacity:1"
         offset="1"
         id="stop835" />
    </linearGradient>
    <linearGradient
       inkscape:collect="always"
       xlink:href="#linearGradient837"
       id="linearGradient839"
       x1="35.012306"
       y1="48.498947"
       x2="34.859177"
       y2="85.114868"
       gradientUnits="userSpaceOnUse" />
    <radialGradient
       inkscape:collect="always"
       xlink:href="#linearGradient855"
       id="radialGradient859"
       cx="33.679989"
       cy="47.1292"
       fx="33.679989"
       fy="47.1292"
       r="33.866665"
       gradientUnits="userSpaceOnUse"
       gradientTransform="matrix(1.8049846,0.00258486,-0.00138412,0.96651709,-26.693905,4.4091881)" />
    <linearGradient
       inkscape:collect="always"
       xlink:href="#linearGradient867"
       id="linearGradient869"
       x1="34.213097"
       y1="111.78025"
       x2="34.143246"
       y2="52.446423"
       gradientUnits="userSpaceOnUse"
       gradientTransform="matrix(3.7795276,0,0,3.7795276,0,-66.519685)" />
    <linearGradient
       inkscape:collect="always"
       xlink:href="#linearGradient867"
       id="linearGradient877"
       gradientUnits="userSpaceOnUse"
       gradientTransform="matrix(0.43946185,0,0,0.43946185,19.382892,46.177473)"
       x1="34.213097"
       y1="111.78025"
       x2="34.143246"
       y2="52.446423" />
    <rect
       x="16.303441"
       y="66.376689"
       width="18.575232"
       height="16.704345"
       id="rect906" />
    <linearGradient
       inkscape:collect="always"
       xlink:href="#linearGradient956"
       id="linearGradient958"
       x1="-118.85789"
       y1="63.551659"
       x2="-127.25747"
       y2="78.292732"
       gradientUnits="userSpaceOnUse"
       gradientTransform="matrix(-0.21236153,-1.0092038,0.97719117,-0.21931845,-46.235071,-18.819036)" />
    <linearGradient
       inkscape:collect="always"
       xlink:href="#linearGradient956"
       id="linearGradient966"
       gradientUnits="userSpaceOnUse"
       gradientTransform="matrix(0.21236153,-0.97719117,-0.97719117,-0.21236153,114.81579,-17.345167)"
       x1="-118.85789"
       y1="63.551659"
       x2="-127.25747"
       y2="78.292732" />
  </defs>
  <sodipodi:namedview
     id="base"
     pagecolor="#ffffff"
     bordercolor="#666666"
     borderopacity="1.0"
     inkscape:pageopacity="0.0"
     inkscape:pageshadow="2"
     inkscape:zoom="1"
     inkscape:cx="230.81791"
     inkscape:cy="247.37746"
     inkscape:document-units="px"
     inkscape:current-layer="layer1"
     showgrid="false"
     units="px"
     inkscape:window-width="1566"
     inkscape:window-height="1019"
     inkscape:window-x="166"
     inkscape:window-y="0"
     inkscape:window-maximized="0"
     inkscape:document-rotation="0"
     inkscape:snap-global="false" />
  <metadata
     id="metadata5">
    <rdf:RDF>
      <cc:Work
         rdf:about="">
        <dc:format>image/svg+xml</dc:format>
        <dc:type
           rdf:resource="http://purl.org/dc/dcmitype/StillImage" />
        <dc:title />
      </cc:Work>
    </rdf:RDF>
  </metadata>
  <g
     inkscape:label="Layer 1"
     inkscape:groupmode="layer"
     id="layer1"
     transform="translate(0,-17.6)">
    <rect
       style="fill:url(#radialGradient859);fill-opacity:1;fill-rule:evenodd;stroke:none;stroke-width:0.529168;stroke-linecap:round"
       id="rect849"
       width="67.73333"
       height="67.73333"
       x="0"
       y="17.6"
       ry="0" />
    <path
       id="rect830"
       style="fill:url(#linearGradient839);fill-opacity:1;fill-rule:evenodd;stroke:#74b0e8;stroke-width:0.529167;stroke-linecap:round"
       d="m 0.53185233,50.60783 c 26.09125567,-7.013056 46.15832067,6.503444 66.66962467,0 0.141142,-0.04475 0.267269,0.119202 0.267269,0.267269 v 34.210499 c 0,0.148067 -0.119202,0.267269 -0.267269,0.267269 H 0.53185233 c -0.14806693,0 -0.26726883,-0.119202 -0.26726883,-0.267269 V 50.875099 c 0,-0.148067 0.12427724,-0.228834 0.26726883,-0.267269 z"
       sodipodi:nodetypes="sssssssss" />
    <rect
       style="fill:#0f0f0f;fill-opacity:1;fill-rule:evenodd;stroke:#74b0e8;stroke-width:0.529167;stroke-linecap:round"
       id="rect847"
       width="32.874149"
       height="8.8198948"
       x="18.682007"
       y="64.906708"
       ry="0.22908758" />
    <text
       xml:space="preserve"
       id="text896"
       style="font-style:normal;font-weight:normal;font-size:4.93889px;line-height:1.25;font-family:sans-serif;text-align:center;letter-spacing:0px;word-spacing:0px;white-space:pre;shape-inside:url(#rect898);fill:#e6faae;fill-opacity:1;stroke:none;"
       transform="translate(-4.0090429,-1.1013122)"><tspan
         x="24.019684"
         y="70.746713"><tspan
           style="shape-inside:url(#rect898)">0</tspan></tspan></text>
    <text
       xml:space="preserve"
       id="text904"
       style="font-style:normal;font-weight:normal;font-size:4.93889px;line-height:1.25;font-family:sans-serif;text-align:center;letter-spacing:0px;word-spacing:0px;white-space:pre;shape-inside:url(#rect906);fill:#e6faae;fill-opacity:1;stroke:none;"
       transform="translate(20.980657,-1.234947)"><tspan
         x="20.877412"
         y="70.746713"><tspan
           style="shape-inside:url(#rect906)">100</tspan></tspan></text>
    <path
       style="fill:#ffb404;fill-opacity:1;fill-rule:evenodd;stroke:#ff9f04;stroke-width:0.52916666;stroke-linecap:round;stroke-miterlimit:4;stroke-dasharray:none;stroke-opacity:1"
       d="m 34.584822,73.256993 2.929313,-6.425594 -1.039434,6.3311 z"
       id="path918" />
    <g
       id="WheelAndHands"
       transform="rotate(0.45613504,-4.189778,31.564834)">
      <g
         id="g916">
        <g
           id="g885">
          <path
             style="fill:#d8d8d8;fill-opacity:1;fill-rule:evenodd;stroke:#f2f2f2;stroke-width:0.529167;stroke-linecap:round;stroke-miterlimit:4;stroke-dasharray:none;stroke-opacity:1"
             d="M 23.386083,76.933836 8.2853553,73.99387 7.2162772,78.671087 23.386083,82.14559 Z"
             id="path879" />
          <path
             style="fill:#d8d8d8;fill-opacity:1;fill-rule:evenodd;stroke:#f2f2f2;stroke-width:0.529167;stroke-linecap:round;stroke-miterlimit:4;stroke-dasharray:none;stroke-opacity:1"
             d="M 23.319266,83.481938 7.349912,80.007433 7.4835467,82.212406 23.386083,87.357344 Z"
             id="path881"
             sodipodi:nodetypes="ccccc" />
        </g>
        <g
           id="g891"
           transform="matrix(-1,0,0,1,69.203692,0.28348214)">
          <path
             style="fill:#d8d8d8;fill-opacity:1;fill-rule:evenodd;stroke:#f2f2f2;stroke-width:0.529167;stroke-linecap:round;stroke-miterlimit:4;stroke-dasharray:none;stroke-opacity:1"
             d="M 23.386083,76.933836 8.2853553,73.99387 7.2162772,78.671087 23.386083,82.14559 Z"
             id="path887" />
          <path
             style="fill:#d8d8d8;fill-opacity:1;fill-rule:evenodd;stroke:#f2f2f2;stroke-width:0.529167;stroke-linecap:round;stroke-miterlimit:4;stroke-dasharray:none;stroke-opacity:1"
             d="M 23.319266,83.481938 7.349912,80.007433 7.4835467,82.212406 23.386083,87.357344 Z"
             id="path889"
             sodipodi:nodetypes="ccccc" />
        </g>
        <circle
           style="fill:url(#linearGradient877);fill-opacity:1;fill-rule:evenodd;stroke:#f2f2f2;stroke-width:0.529167;stroke-linecap:round;stroke-miterlimit:4;stroke-dasharray:none;stroke-opacity:1"
           id="circle875"
           cx="34.579075"
           cy="82.380608"
           r="12.964583" />
        <path
           id="path861"
           style="fill:url(#linearGradient869);fill-opacity:1;fill-rule:evenodd;stroke:#f2f2f2;stroke-width:2;stroke-linecap:round;stroke-miterlimit:4;stroke-dasharray:none;stroke-opacity:1"
           d="m 130.4707,133.33984 a 111.5,111.5 0 0 0 -111.277341,111.5 111.5,111.5 0 0 0 111.500001,111.5 111.5,111.5 0 0 0 111.5,-111.5 111.5,111.5 0 0 0 -111.5,-111.5 111.5,111.5 0 0 0 -0.22266,0 z m 0.22266,12.5 a 99,99 0 0 1 99,99 99,99 0 0 1 -99,99 99,99 0 0 1 -99.000001,-99 99,99 0 0 1 99.000001,-99 z"
           transform="matrix(0.26458333,0,0,0.26458333,0,17.6)" />
      </g>
      <path
         style="fill:url(#linearGradient958);fill-opacity:1;fill-rule:evenodd;stroke:#2d1c00;stroke-width:0.529167;stroke-linecap:round;stroke-miterlimit:4;stroke-dasharray:none;stroke-opacity:1"
         d="m 49.21832,106.9358 c 1.195769,-0.72828 1.754759,-2.57266 2.582273,-4.21615 l 5.79491,-10.422297 4.010859,-2.99741 c 3.641097,-8.388998 4.286222,-8.574513 5.414208,-17.501088 -0.538563,-2.15868 0.07227,-4.756101 -2.32854,-3.452034 l -2.599065,8.560203 c 1.631045,-5.730021 1.905286,-3.480203 2.801756,-9.697999 -0.45256,-2.971813 -0.345551,-5.953152 -3.469472,-4.394915 -0.422417,6.543647 -2.145751,6.237626 -3.772384,12.293152 1.484415,-6.228334 4.231715,-6.128019 3.928857,-13.336784 -0.789009,-3.851026 -2.606973,-2.816162 -4.324013,-1.269031 -0.191942,6.686342 -3.480897,6.590784 -5.919778,12.627626 2.019692,-6.065568 6.084941,-6.775899 5.764408,-13.798459 -1.092808,-2.762196 -2.283196,-1.972186 -3.477602,-0.959992 -1.697418,6.049785 -5.285969,7.209154 -8.079847,12.96274 -0.223318,-2.979195 5.11719,-5.960159 4.045471,-8.748938 -1.493611,-1.453181 -1.254905,-3.85803 -3.907234,-2.262251 0.738711,2.982514 -7.202287,7.544851 -7.003286,10.554614 0.179448,4.816709 0.966434,9.513414 4.611931,13.645429 L 34.362037,100.9073 c -5.660147,3.38996 -5.493941,-3.606183 -4.975155,-0.84697 1.252429,5.77665 11.837662,15.83309 19.831438,6.87547 z"
         id="path950"
         sodipodi:nodetypes="ccccccccccccccccccccccc" />
      <path
         style="fill:url(#linearGradient966);fill-opacity:1;fill-rule:evenodd;stroke:#2d1c00;stroke-width:0.529167;stroke-linecap:round;stroke-miterlimit:4;stroke-dasharray:none;stroke-opacity:1"
         d="m 19.362399,107.10887 c -1.195769,-0.70518 -1.754759,-2.49106 -2.582273,-4.08241 L 10.985216,90.24654 6.9743567,87.344209 C 3.3332597,79.221316 1.9321818,77.624274 0.80419584,68.980856 1.3427588,66.890651 1.1099024,64.186634 3.5107124,65.449335 l 2.9770413,9.895067 C 4.8567087,69.796141 4.2989853,70.462688 3.4025153,64.442124 c 0.45256,-2.877545 1.4794799,-5.858807 4.6034009,-4.349998 0.422417,6.336078 1.2953045,7.646162 2.9219378,13.509603 C 9.4434387,67.570962 8.019055,66.15619 8.321913,59.176092 c 0.789009,-3.728869 2.701467,-3.104808 4.418507,-1.606753 0.191942,6.474247 2.063487,8.271601 4.502368,14.116951 -2.019692,-5.873165 -4.19506,-6.844445 -3.874527,-13.644245 1.092808,-2.674578 2.054899,-5.867896 4.895013,-1.779987 -0.475945,6.897317 1.978677,8.114403 4.772555,13.685482 0.223318,-2.884693 -2.282369,-6.149075 -1.21065,-8.849392 1.493611,-1.407085 2.29434,-0.617347 4.946669,0.927813 -0.738711,2.887907 3.328031,4.565195 3.12903,7.479487 -0.179448,4.66392 -0.966434,9.211642 -4.611931,13.212587 l 8.929735,15.86534 c 5.660147,3.282425 5.493941,-0.803578 4.975155,1.868115 -1.252429,5.59341 -11.837662,15.33085 -19.831438,6.65738 z"
         id="path964"
         sodipodi:nodetypes="ccccccccccccccccccccccc" />
    </g>
  </g>
</svg>
